<svg id="visual" viewBox="0 0 960 540" width="960" height="540" xmlns="http://www.w3.org/2000/svg" xmlns:xlink="http://www.w3.org/1999/xlink" version="1.1"><rect x="0" y="0" width="960" height="540" fill="#0a192f"></rect><defs><linearGradient id="grad1_0" x1="43.8%" y1="0%" x2="100%" y2="100%"><stop offset="14.444444444444446%" stop-color="#ccd6f6" stop-opacity="1"></stop><stop offset="85.55555555555554%" stop-color="#ccd6f6" stop-opacity="1"></stop></linearGradient></defs><defs><linearGradient id="grad1_1" x1="43.8%" y1="0%" x2="100%" y2="100%"><stop offset="14.444444444444446%" stop-color="#ccd6f6" stop-opacity="1"></stop><stop offset="85.55555555555554%" stop-color="#65708c" stop-opacity="1"></stop></linearGradient></defs><defs><linearGradient id="grad1_2" x1="43.8%" y1="0%" x2="100%" y2="100%"><stop offset="14.444444444444446%" stop-color="#0a192f" stop-opacity="1"></stop><stop offset="85.55555555555554%" stop-color="#65708c" stop-opacity="1"></stop></linearGradient></defs><defs><linearGradient id="grad2_0" x1="0%" y1="0%" x2="56.3%" y2="100%"><stop offset="14.444444444444446%" stop-color="#ccd6f6" stop-opacity="1"></stop><stop offset="85.55555555555554%" stop-color="#ccd6f6" stop-opacity="1"></stop></linearGradient></defs><defs><linearGradient id="grad2_1" x1="0%" y1="0%" x2="56.3%" y2="100%"><stop offset="14.444444444444446%" stop-color="#65708c" stop-opacity="1"></stop><stop offset="85.55555555555554%" stop-color="#ccd6f6" stop-opacity="1"></stop></linearGradient></defs><defs><linearGradient id="grad2_2" x1="0%" y1="0%" x2="56.3%" y2="100%"><stop offset="14.444444444444446%" stop-color="#65708c" stop-opacity="1"></stop><stop offset="85.55555555555554%" stop-color="#0a192f" stop-opacity="1"></stop></linearGradient></defs><g transform="translate(960, 0)"><path d="M0 270C-49.4 264.2 -98.7 258.3 -135 233.8C-171.3 209.3 -194.5 166.1 -214.8 124C-235.1 81.9 -252.5 41 -270 0L0 0Z" fill="#37425b"></path><path d="M0 180C-32.9 176.1 -65.8 172.2 -90 155.9C-114.2 139.5 -129.6 110.7 -143.2 82.7C-156.7 54.6 -168.4 27.3 -180 0L0 0Z" fill="#97a1c0"></path><path d="M0 90C-16.5 88.1 -32.9 86.1 -45 77.9C-57.1 69.8 -64.8 55.4 -71.6 41.3C-78.4 27.3 -84.2 13.7 -90 0L0 0Z" fill="#ccd6f6"></path></g><g transform="translate(0, 540)"><path d="M0 -270C45.8 -260.9 91.5 -251.7 133 -230.4C174.5 -209 211.7 -175.4 233.8 -135C255.9 -94.6 263 -47.3 270 0L0 0Z" fill="#37425b"></path><path d="M0 -180C30.5 -173.9 61 -167.8 88.7 -153.6C116.3 -139.3 141.1 -117 155.9 -90C170.6 -63 175.3 -31.5 180 0L0 0Z" fill="#97a1c0"></path><path d="M0 -90C15.3 -87 30.5 -83.9 44.3 -76.8C58.2 -69.7 70.6 -58.5 77.9 -45C85.3 -31.5 87.7 -15.8 90 0L0 0Z" fill="#ccd6f6"></path></g></svg>